<svg xmlns="http://www.w3.org/2000/svg" viewBox="0 0 1000 1000"><defs><style>.cls-1{fill:#2ecc71;}.cls-2{fill:#27ae60;}.cls-3{fill:#fff;}.cls-4{fill:#f5d552;}.cls-5{fill:#353c3e;}.cls-6{fill:#1c2021;}.cls-7{fill:#b8c3c3;}.cls-8{fill:#6b797e;}</style></defs><title>logo</title><g id="logo_0" data-name="logo 0"><rect class="cls-1" width="1000" height="1000"/><rect class="cls-2" x="28.98" y="28.76" width="942.55" height="942.89"/><circle class="cls-3" cx="101.24" cy="101.16" r="25.12"/><circle class="cls-3" cx="102.76" cy="900.35" r="25.12"/><circle class="cls-3" cx="901.14" cy="101.16" r="25.12"/></g><g id="_0" data-name="0"><rect class="cls-4" x="276.49" y="819.56" width="57.48" height="121.38"/><rect class="cls-4" x="471.25" y="819.56" width="57.48" height="121.38"/><rect class="cls-4" x="667.5" y="819.56" width="57.48" height="121.38"/><rect class="cls-4" x="667.64" y="58.99" width="57.48" height="121.44"/><rect class="cls-4" x="471.25" y="58.99" width="57.48" height="130.6"/><rect class="cls-4" x="276.49" y="58.99" width="57.48" height="102.74"/><rect class="cls-4" x="59.02" y="276.56" width="121.42" height="57.33"/><rect class="cls-4" x="59.02" y="471.37" width="121.42" height="57.33"/><rect class="cls-4" x="59.02" y="665.98" width="121.42" height="57.33"/><rect class="cls-4" x="829.8" y="665.98" width="111.17" height="57.33"/><rect class="cls-4" x="800.19" y="471.33" width="140.79" height="57.33"/><rect class="cls-4" x="829.8" y="276.56" width="111.17" height="57.33"/></g><g id="logo_1" data-name="logo 1"><rect class="cls-5" x="145.01" y="145.05" width="709.96" height="709.96"/><rect class="cls-6" x="180.44" y="180.43" width="639.12" height="639.13"/><rect class="cls-7" x="236.09" y="236.09" width="232.72" height="232.72"/><rect class="cls-8" x="295.11" y="298.48" width="114.66" height="170.32"/><rect class="cls-7" x="538.38" y="236.09" width="232.72" height="232.72" transform="translate(1309.49 704.89) rotate(180)"/><rect class="cls-8" x="597.42" y="236.09" width="114.66" height="170.32" transform="translate(1309.5 642.5) rotate(180)"/><rect class="cls-7" x="233.98" y="534.87" width="232.72" height="232.72" transform="matrix(0, -1, 1, 0, -300.89, 1001.57)"/><rect class="cls-8" x="324.21" y="566.07" width="114.66" height="170.32" transform="matrix(0, -1, 1, 0, -269.69, 1032.77)"/><rect class="cls-7" x="538.38" y="534.87" width="232.72" height="232.72" transform="matrix(0, -1, 1, 0, 3.51, 1305.98)"/><rect class="cls-8" x="628.61" y="566.08" width="114.66" height="170.32" transform="matrix(0, -1, 1, 0, 34.71, 1337.18)"/></g></svg>