<svg xmlns="http://www.w3.org/2000/svg" viewBox="0 0 602.97 111.55"><defs><style>.cls-1{fill:#ff6b00;}.cls-2{fill:#00216a;}.cls-3{fill:#00a88e;}.cls-4{fill:#007472;}</style></defs><title>Asset 1</title><g id="Layer_2" data-name="Layer 2"><g id="Layer_1-2" data-name="Layer 1"><path class="cls-1" d="M284.69,100.22a5.31,5.31,0,1,1-5.3-5.3A5.31,5.31,0,0,1,284.69,100.22Zm-.93,0a4.39,4.39,0,1,0-4.38,4.42A4.4,4.4,0,0,0,283.76,100.22Zm-3.14.65,1.12,2.06h-1.23l-.95-1.83h-.79v1.83h-1.13V97.51h1.83a1.84,1.84,0,0,1,2.07,1.76A1.66,1.66,0,0,1,280.62,100.87Zm-1.85-.8h.7c.6,0,.94-.3.94-.74s-.34-.76-.94-.76h-.7Z"/><path class="cls-1" d="M288.08,40.72H191.33V0h56a40.71,40.71,0,0,1,40.71,40.71Z"/><polygon class="cls-2" points="40.71 64.81 40.71 0 0 0 0 105.53 82.12 105.53 82.12 64.81 40.71 64.81"/><path class="cls-3" d="M232,40.72V81.43h15.33a40.71,40.71,0,0,0,40.71-40.71Z"/><path class="cls-2" d="M336.93,72.7h-10.1l-2.15,5H322.6L331,58.59h1.86l8.35,19.08h-2.09Zm-.69-1.65L331.91,61l-4.36,10.09Z"/><path class="cls-2" d="M356.76,57.56V77.67H355l0-2.94a5.64,5.64,0,0,1-5.45,3.2c-3.81,0-6.55-2.81-6.55-7s2.74-7.12,6.55-7.12a5.65,5.65,0,0,1,5.45,3.2V57.56Zm-1.85,13.3c0-3.27-2-5.46-5-5.46s-5,2.19-5,5.49,2,5.44,5,5.44S354.91,74.14,354.91,70.86Z"/><path class="cls-2" d="M359.72,64h2l5,11.5,5-11.5h2l-6.06,13.64h-1.88Z"/><path class="cls-2" d="M386.54,69.08v8.59h-1.8l-.06-2.86a5.47,5.47,0,0,1-5.05,3.12c-2.68,0-4.49-1.57-4.49-4s2.22-4.15,5.57-4.15a17.48,17.48,0,0,1,4,.46v-1a3.78,3.78,0,0,0-4.07-4,4.89,4.89,0,0,0-3.74,1.52L376,65.66a6.77,6.77,0,0,1,5-1.89C384.37,63.77,386.54,65.89,386.54,69.08Zm-1.86,2.51a16.6,16.6,0,0,0-3.74-.44c-2.32,0-3.86,1.11-3.86,2.76s1.16,2.63,3.07,2.63A4.69,4.69,0,0,0,384.68,71.59Z"/><path class="cls-2" d="M403.48,69.08v8.59h-1.86V69.45c0-2.45-1.72-4-4.3-4S393,67,393,69.45v8.22h-1.86V64h1.8l0,2.3a5.26,5.26,0,0,1,4.92-2.56C401.24,63.77,403.48,65.89,403.48,69.08Z"/><path class="cls-2" d="M407.17,70.84a6.66,6.66,0,0,1,7-7.07,6.82,6.82,0,0,1,4.41,1.5l-1.06,1.29a5,5,0,0,0-3.35-1.16c-3,0-5.05,2.16-5.05,5.46s2,5.47,5.08,5.47a5.13,5.13,0,0,0,3.71-1.47L419,76.13a7,7,0,0,1-4.92,1.8C410,77.93,407.17,75.09,407.17,70.84Z"/><path class="cls-2" d="M434,71.54H423.13c.23,3,1.83,4.89,4.53,4.89a5.4,5.4,0,0,0,4.41-2.32l1.42.8a6.79,6.79,0,0,1-5.83,3c-3.89,0-6.52-2.84-6.52-7.09s2.58-7.07,6.47-7.07S434,66.53,434,70.68C434,70.92,434,71.33,434,71.54Zm-10.88-1.32h9c-.15-3-1.86-5-4.49-5S423.31,67.18,423.13,70.22Z"/><path class="cls-2" d="M450.74,57.56V77.67h-1.8l-.06-2.94a5.61,5.61,0,0,1-5.44,3.2c-3.81,0-6.55-2.81-6.55-7s2.74-7.12,6.55-7.12a5.63,5.63,0,0,1,5.44,3.2V57.56Zm-1.86,13.3c0-3.27-2-5.46-5-5.46s-5,2.19-5,5.49,2,5.44,5,5.44S448.88,74.14,448.88,70.86Z"/><path class="cls-2" d="M474.33,72.7H464.22l-2.14,5H460l8.35-19.08h1.86l8.35,19.08h-2.09Zm-.69-1.65L469.3,61,465,71.05Z"/><path class="cls-2" d="M493.65,69.08v8.59h-1.86V69.45c0-2.45-1.73-4-4.31-4s-4.33,1.6-4.33,4v8.22h-1.86V64h1.81l0,2.3a5.28,5.28,0,0,1,4.93-2.56C491.4,63.77,493.65,65.89,493.65,69.08Z"/><path class="cls-2" d="M508.47,69.08v8.59h-1.8l-.06-2.86a5.47,5.47,0,0,1-5.05,3.12c-2.68,0-4.49-1.57-4.49-4s2.22-4.15,5.57-4.15a17.48,17.48,0,0,1,4,.46v-1a3.78,3.78,0,0,0-4.07-4,4.89,4.89,0,0,0-3.74,1.52L498,65.66a6.77,6.77,0,0,1,5-1.89C506.3,63.77,508.47,65.89,508.47,69.08Zm-1.86,2.51a16.6,16.6,0,0,0-3.74-.44c-2.32,0-3.86,1.11-3.86,2.76s1.16,2.63,3.07,2.63A4.69,4.69,0,0,0,506.61,71.59Z"/><path class="cls-2" d="M513.11,57.56H515V77.67h-1.86Z"/><path class="cls-2" d="M519.4,83.29l.21-1.52a2.58,2.58,0,0,0,1.16.23c1.16,0,1.65-.77,2.19-1.93l1.21-2.58L518.06,64h2l5,11.42L530.05,64h2l-7.3,16.3c-.85,2-1.7,3.27-3.74,3.27A4,4,0,0,1,519.4,83.29Z"/><path class="cls-2" d="M542.68,75.84v1.52a8.34,8.34,0,0,1-3.3.57,3.54,3.54,0,0,1-3.68-3.77V65.58h-2.38V64h2.38V60h1.85v4h4.93v1.55h-4.93V73.8a2.35,2.35,0,0,0,2.4,2.53A7.42,7.42,0,0,0,542.68,75.84Z"/><path class="cls-2" d="M545.34,59.36a1.25,1.25,0,1,1,1.26,1.24A1.23,1.23,0,0,1,545.34,59.36Zm.33,4.67h1.86V77.67h-1.86Z"/><path class="cls-2" d="M551.42,70.84a6.66,6.66,0,0,1,7-7.07,6.82,6.82,0,0,1,4.41,1.5l-1.06,1.29a5,5,0,0,0-3.35-1.16c-3.05,0-5.06,2.16-5.06,5.46s2,5.47,5.08,5.47a5.14,5.14,0,0,0,3.72-1.47l1.08,1.27a7,7,0,0,1-4.93,1.8C554.21,77.93,551.42,75.09,551.42,70.84Z"/><path class="cls-2" d="M565.91,76.49l.78-1.16a6.53,6.53,0,0,0,3.92,1.1c1.93,0,3.22-.9,3.22-2.29s-1.21-2-2.86-2.48l-1.47-.43c-2.14-.6-3.61-1.45-3.61-3.49,0-2.39,1.91-4,4.79-4A8.27,8.27,0,0,1,575.33,65l-.8,1.26a6.85,6.85,0,0,0-3.72-1c-1.8,0-3,.85-3,2.19s1.05,1.83,2.52,2.24l1.47.44c2.07.57,4,1.6,4,3.85s-2,3.94-5.13,3.94A7.08,7.08,0,0,1,565.91,76.49Z"/><path class="cls-2" d="M602.66,75.84v1.52a8.47,8.47,0,0,1-3.3.57A3.47,3.47,0,0,1,596,75.71a6,6,0,0,1-5,2.22c-3.44,0-5.78-2.17-5.78-5.39a5.28,5.28,0,0,1,4-5.16,4.45,4.45,0,0,1-3.07-4.3c0-2.84,2.29-4.75,5.72-4.75s5.63,1.91,5.63,4.8v3.56h4.92v1.49h-4.92V73.8a2.34,2.34,0,0,0,2.39,2.53A7.47,7.47,0,0,0,602.66,75.84Zm-7-3V68.18H591.9c-2.86,0-4.74,1.63-4.74,4.08a3.94,3.94,0,0,0,4.28,4.07C593.61,76.33,595.67,75.2,595.67,72.85Zm-3.77-6.16h3.77V63.31c0-2-1.52-3.38-3.77-3.38s-3.79,1.34-3.79,3.38S589.63,66.69,591.9,66.69Z"/><path class="cls-2" d="M337.79,100.3c0,3.2-2.45,5.31-6.14,5.31h-7.56V86.53h7.09c3.43,0,5.73,1.94,5.73,4.82a4.47,4.47,0,0,1-3.1,4.28A4.75,4.75,0,0,1,337.79,100.3ZM326.05,95h4.72c2.48,0,4.1-1.37,4.1-3.4s-1.68-3.43-4.2-3.43h-4.62Zm9.7,5.31c0-2.19-1.73-3.66-4.31-3.66h-5.39V104h5.39C334,104,335.75,102.52,335.75,100.3Z"/><path class="cls-2" d="M353.59,92v13.64h-1.78l-.05-2.27a5.54,5.54,0,0,1-10.19-2.75V92h1.86v8.25a4.15,4.15,0,0,0,8.3,0V92Z"/><path class="cls-2" d="M357.58,104.43l.78-1.16a6.54,6.54,0,0,0,3.92,1.11c1.93,0,3.22-.91,3.22-2.3s-1.21-2-2.86-2.47l-1.47-.44c-2.14-.6-3.61-1.45-3.61-3.48,0-2.4,1.91-4,4.79-4A8.25,8.25,0,0,1,367,93l-.8,1.27a6.78,6.78,0,0,0-3.72-1c-1.8,0-3,.85-3,2.19s1,1.83,2.52,2.25l1.47.43c2.07.57,4,1.6,4,3.85s-2,3.94-5.13,3.94A7.08,7.08,0,0,1,357.58,104.43Z"/><path class="cls-2" d="M371,87.31a1.26,1.26,0,1,1,2.51,0,1.26,1.26,0,0,1-2.51,0ZM371.3,92h1.86v13.64H371.3Z"/><path class="cls-2" d="M390.3,97v8.58h-1.85V97.39c0-2.45-1.73-4-4.31-4s-4.33,1.6-4.33,4v8.22H378V92h1.81l0,2.3a5.28,5.28,0,0,1,4.93-2.56C388.06,91.71,390.3,93.83,390.3,97Z"/><path class="cls-2" d="M406.88,99.48H396c.23,3,1.83,4.9,4.54,4.9a5.45,5.45,0,0,0,4.41-2.32l1.42.79a6.79,6.79,0,0,1-5.83,3c-3.89,0-6.52-2.83-6.52-7.09s2.57-7.07,6.47-7.07,6.42,2.76,6.42,6.92A7.86,7.86,0,0,1,406.88,99.48ZM396,98.16h9c-.15-3-1.85-5-4.48-5S396.18,95.12,396,98.16Z"/><path class="cls-2" d="M409.9,104.43l.77-1.16a6.56,6.56,0,0,0,3.92,1.11c1.94,0,3.22-.91,3.22-2.3s-1.21-2-2.86-2.47l-1.47-.44c-2.14-.6-3.61-1.45-3.61-3.48,0-2.4,1.91-4,4.8-4A8.21,8.21,0,0,1,419.31,93l-.8,1.27a6.76,6.76,0,0,0-3.71-1c-1.81,0-3,.85-3,2.19s1.06,1.83,2.53,2.25l1.47.43c2.06.57,3.94,1.6,3.94,3.85s-2,3.94-5.13,3.94A7.07,7.07,0,0,1,409.9,104.43Z"/><path class="cls-2" d="M422.76,104.43l.78-1.16a6.54,6.54,0,0,0,3.92,1.11c1.93,0,3.22-.91,3.22-2.3s-1.21-2-2.86-2.47l-1.47-.44c-2.14-.6-3.61-1.45-3.61-3.48,0-2.4,1.91-4,4.79-4A8.25,8.25,0,0,1,432.18,93l-.8,1.27a6.78,6.78,0,0,0-3.72-1c-1.8,0-3,.85-3,2.19s1.05,1.83,2.52,2.25l1.47.43c2.07.57,3.95,1.6,3.95,3.85s-2,3.94-5.13,3.94A7.08,7.08,0,0,1,422.76,104.43Z"/><path class="cls-2" d="M443.06,96c0-5.85,3.86-9.75,9.64-9.75a9.31,9.31,0,0,1,7.19,3.1l-1.23,1.26a7.58,7.58,0,0,0-5.88-2.73c-4.59,0-7.66,3.25-7.66,8.12s3,8.23,7.61,8.23a7.51,7.51,0,0,0,6.37-3.33l1.34,1.24a9.39,9.39,0,0,1-7.74,3.71C446.92,105.87,443.06,101.93,443.06,96Z"/><path class="cls-2" d="M463,98.81c0-4.26,2.81-7.1,7-7.1s6.94,2.84,6.94,7.1-2.78,7.06-6.94,7.06A6.65,6.65,0,0,1,463,98.81Zm12,0c0-3.31-2-5.47-5-5.47s-5,2.16-5,5.47,2,5.46,5,5.46S475,102.08,475,98.81Z"/><path class="cls-2" d="M493.13,97v8.58h-1.86V97.39c0-2.45-1.73-4-4.3-4s-4.34,1.6-4.34,4v8.22h-1.85V92h1.8l0,2.3a5.26,5.26,0,0,1,4.92-2.56C490.89,91.71,493.13,93.83,493.13,97Z"/><path class="cls-2" d="M496.94,104.43l.78-1.16a6.54,6.54,0,0,0,3.92,1.11c1.93,0,3.22-.91,3.22-2.3s-1.21-2-2.86-2.47l-1.47-.44c-2.14-.6-3.61-1.45-3.61-3.48,0-2.4,1.91-4,4.79-4A8.21,8.21,0,0,1,506.35,93l-.79,1.27a6.78,6.78,0,0,0-3.72-1c-1.8,0-3,.85-3,2.19s1.05,1.83,2.52,2.25l1.47.43c2.06.57,3.95,1.6,3.95,3.85s-2,3.94-5.13,3.94A7.08,7.08,0,0,1,496.94,104.43Z"/><path class="cls-2" d="M522.47,92v13.64h-1.78l-.05-2.27a5.54,5.54,0,0,1-10.19-2.75V92h1.86v8.25a4.15,4.15,0,0,0,8.3,0V92Z"/><path class="cls-2" d="M527.29,85.5h1.86v20.11h-1.86Z"/><path class="cls-2" d="M541.68,103.78v1.52a8.34,8.34,0,0,1-3.3.57,3.54,3.54,0,0,1-3.69-3.76V93.52h-2.37V92h2.37V88h1.86v4h4.92v1.55h-4.92v8.23a2.35,2.35,0,0,0,2.39,2.52A7.47,7.47,0,0,0,541.68,103.78Z"/><path class="cls-2" d="M554.88,97v8.58h-1.81l-.05-2.86a5.48,5.48,0,0,1-5,3.12c-2.68,0-4.49-1.57-4.49-4s2.22-4.15,5.57-4.15a17.48,17.48,0,0,1,4,.46v-.95A3.78,3.78,0,0,0,549,93.21a4.88,4.88,0,0,0-3.74,1.52l-.85-1.13a6.81,6.81,0,0,1,5-1.89C552.71,91.71,554.88,93.83,554.88,97ZM553,99.53a16.6,16.6,0,0,0-3.74-.44c-2.32,0-3.86,1.11-3.86,2.76s1.16,2.63,3.06,2.63A4.69,4.69,0,0,0,553,99.53Z"/><path class="cls-2" d="M571.82,97v8.58H570V97.39c0-2.45-1.73-4-4.3-4s-4.34,1.6-4.34,4v8.22h-1.85V92h1.8l0,2.3a5.26,5.26,0,0,1,4.92-2.56C569.58,91.71,571.82,93.83,571.82,97Z"/><path class="cls-2" d="M575.5,98.78a6.66,6.66,0,0,1,7-7.07,6.82,6.82,0,0,1,4.41,1.5l-1.06,1.29a5,5,0,0,0-3.35-1.16c-3,0-5.06,2.16-5.06,5.47s2,5.46,5.08,5.46a5.14,5.14,0,0,0,3.72-1.47l1.08,1.27a7,7,0,0,1-4.92,1.8C578.29,105.87,575.5,103,575.5,98.78Z"/><path class="cls-2" d="M590.28,111.24l.2-1.53a2.61,2.61,0,0,0,1.16.24c1.17,0,1.65-.78,2.2-1.94l1.21-2.58L588.94,92h2L596,103.4,600.93,92h2l-7.3,16.3c-.85,2-1.7,3.28-3.74,3.28A4.22,4.22,0,0,1,590.28,111.24Z"/><path class="cls-2" d="M102.64,0h-33V40.72h35.29v64.81h40.71V40.72h-2.24A40.72,40.72,0,0,1,102.64,0Z"/><path class="cls-1" d="M120.51-17.87h40.72a0,0,0,0,1,0,0V17.87a40.72,40.72,0,0,1-40.72,40.72h0a0,0,0,0,1,0,0V-17.87A0,0,0,0,1,120.51-17.87Z" transform="translate(161.22 -120.51) rotate(90)"/><path class="cls-4" d="M232,40.72v64.81H191.33V81.43A40.71,40.71,0,0,1,232,40.72Z"/></g></g></svg>